{
  "asset": {
    "extras": {
      "author": "holsoft (https://sketchfab.com/holsoft)",
      "license": "CC-BY-4.0 (http://creativecommons.org/licenses/by/4.0/)",
      "source": "https://sketchfab.com/models/1337fce7e3b4489fa95c868225f73bba",
      "title": "Door handles"
    },
    "generator": "gltfeditor.com",
    "version": "2.0"
  },
  "buffers": [
    {
      "uri": "data:application/octet-stream;base64,",
      "byteLength": 9216
    }
  ],
  "bufferViews": [
    {
      "buffer": 0,
      "byteOffset": 2656,
      "byteLength": 3936,
      "target": 34962,
      "byteStride": 12
    },
    {
      "buffer": 0,
      "byteOffset": 6592,
      "byteLength": 2624,
      "target": 34962,
      "byteStride": 16
    },
    {
      "buffer": 0,
      "byteOffset": 1344,
      "byteLength": 1312,
      "target": 34962,
      "byteStride": 8
    },
    {
      "buffer": 0,
      "byteOffset": 0,
      "byteLength": 1344,
      "target": 34963
    }
  ],
  "accessors": [
    {
      "bufferView": 0,
      "byteOffset": 1152,
      "componentType": 5126,
      "normalized": false,
      "count": 96,
      "max": [
        1,
        0.6657238006591797,
        1
      ],
      "min": [
        -1,
        -1,
        -1
      ],
      "type": "VEC3"
    },
    {
      "bufferView": 0,
      "byteOffset": 0,
      "componentType": 5126,
      "normalized": false,
      "count": 96,
      "max": [
        0.048442598432302475,
        -0.01183885894715786,
        1.2170000076293945
      ],
      "min": [
        -0.0007241740822792053,
        -0.06591008603572845,
        0.9830000400543213
      ],
      "type": "VEC3"
    },
    {
      "bufferView": 1,
      "byteOffset": 0,
      "componentType": 5126,
      "normalized": false,
      "count": 96,
      "max": [
        1,
        1,
        0.9893442392349243,
        1
      ],
      "min": [
        -0.9895435571670532,
        -1,
        -0.9893472790718079,
        1
      ],
      "type": "VEC4"
    },
    {
      "bufferView": 2,
      "byteOffset": 0,
      "componentType": 5126,
      "normalized": false,
      "count": 96,
      "max": [
        0.42330968379974365,
        0.645789623260498
      ],
      "min": [
        0.008606016635894775,
        0.322447806596756
      ],
      "type": "VEC2"
    },
    {
      "bufferView": 3,
      "byteOffset": 0,
      "componentType": 5125,
      "normalized": false,
      "count": 228,
      "max": [
        95
      ],
      "min": [
        0
      ],
      "type": "SCALAR"
    }
  ],
  "scene": 0,
  "scenes": [
    {
      "nodes": [
        5
      ],
      "name": "OSG_Scene"
    }
  ],
  "nodes": [
    {
      "name": "Handle_Basic_2_Handle_0",
      "mesh": 0
    },
    {
      "name": "Handle_Basic_2",
      "children": [
        0
      ],
      "matrix": [
        100,
        0,
        0,
        0,
        0,
        -0.000013435885193757713,
        -100,
        0,
        0,
        100,
        -0.000013435885193757713,
        0,
        2.097533702850342,
        0,
        0,
        1
      ]
    },
    {
      "name": "RootNode",
      "children": [
        1
      ]
    },
    {
      "name": "2f216ec853d54f7b8e77dd17d005873b.fbx",
      "children": [
        2
      ],
      "matrix": [
        1,
        0,
        0,
        0,
        0,
        3.422854177870249e-8,
        0.9999999403953552,
        0,
        0,
        -0.9999999403953552,
        3.422854177870249e-8,
        0,
        0,
        0,
        0,
        1
      ]
    },
    {
      "name": "RootNode (model correction matrix)",
      "children": [
        3
      ]
    },
    {
      "name": "RootNode (gltf orientation matrix)",
      "children": [
        4
      ],
      "matrix": [
        0.10000000149011612,
        0,
        0,
        0,
        0,
        2.0281593293702826e-8,
        -0.10000000149011612,
        0,
        0,
        0.0989999994635582,
        2.0078775975207463e-8,
        0,
        0,
        0,
        0,
        1
      ]
    }
  ],
  "meshes": [
    {
      "primitives": [
        {
          "attributes": {
            "NORMAL": 0,
            "POSITION": 1,
            "TANGENT": 2,
            "TEXCOORD_0": 3
          },
          "material": 0,
          "mode": 4,
          "indices": 4
        }
      ]
    }
  ],
  "materials": [
    {
      "pbrMetallicRoughness": {
        "baseColorFactor": [
          1,
          1,
          1,
          1
        ],
        "metallicFactor": 1,
        "roughnessFactor": 1,
        "baseColorTexture": {
          "index": 0,
          "texCoord": 0
        },
        "metallicRoughnessTexture": {
          "index": 1,
          "texCoord": 0
        }
      },
      "emissiveFactor": [
        0,
        0,
        0
      ],
      "alphaMode": "OPAQUE",
      "doubleSided": true,
      "normalTexture": {
        "index": 2,
        "texCoord": 0,
        "scale": 0.2073170732
      }
    }
  ],
  "textures": [
    {
      "sampler": 0,
      "source": 0
    },
    {
      "sampler": 1,
      "source": 1
    },
    {
      "sampler": 2,
      "source": 2
    }
  ],
  "samplers": [
    {
      "magFilter": 9729,
      "minFilter": 9987,
      "wrapS": 10497,
      "wrapT": 10497
    },
    {
      "magFilter": 9729,
      "minFilter": 9987,
      "wrapS": 10497,
      "wrapT": 10497
    },
    {
      "magFilter": 9729,
      "minFilter": 9987,
      "wrapS": 10497,
      "wrapT": 10497
    }
  ],
  "images": [
    {
      "uri": "data:image/png;base64,",
      "mimeType": "image/png"
    },
    {
      "uri": "data:image/png;base64,",
      "mimeType": "image/png"
    },
    {
      "uri": "data:image/png;base64,",
      "mimeType": "image/png"
    }
  ]
}