<svg version="1.2" baseProfile="tiny-ps" xmlns="http://www.w3.org/2000/svg" viewBox="0 0 512 512" width="16" height="16">
	<title>minus-svg</title>
	<style>
		tspan { white-space:pre }
		.s0 { fill: #000000 } 
	</style>
	<g id="Layer">
		<g id="Layer">
			<path id="Layer" fill-rule="evenodd" class="s0" d="m256 512c-141.16 0-256-114.84-256-256c0-141.16 114.84-256 256-256c141.16 0 256 114.84 256 256c0 141.16-114.84 256-256 256zm0-21.33c129.39 0 234.67-105.27 234.67-234.67c0-129.4-105.27-234.67-234.67-234.67c-129.4 0-234.67 105.27-234.67 234.67c0 129.4 105.27 234.67 234.67 234.67z" />
		</g>
	</g>
	<g id="Layer">
		<g id="Layer">
			<path id="Layer" class="s0" d="m265.95 94.9l0 309.33h-21.33l0-309.33h21.33z" />
		</g>
	</g>
	<g id="Layer copy 3">
		<g id="Layer">
		</g>
	</g>
	<g id="Layer copy 6">
		<g id="Layer">
			<path id="Layer" class="s0" d="m94.9 246.05h309.33v21.33h-309.33v-21.33z" />
		</g>
	</g>
	<g id="Layer copy 7">
	</g>
	<g id="Layer copy 8">
	</g>
	<g id="Layer copy 9">
	</g>
	<g id="Layer copy 10">
	</g>
	<g id="Layer copy 11">
	</g>
	<g id="Layer copy 12">
	</g>
	<g id="Layer copy 13">
	</g>
	<g id="Layer copy 14">
	</g>
	<g id="Layer copy 15">
	</g>
	<g id="Layer copy 16">
	</g>
	<g id="Layer copy 17">
	</g>
	<g id="Layer copy 18">
	</g>
	<g id="Layer copy 19">
	</g>
	<g id="Layer copy 20">
	</g>
	<g id="Layer copy 21">
	</g>
</svg>