{
  "asset": {
    "extras": {
      "author": "Techdesignhut (https://sketchfab.com/Techdesign)",
      "license": "CC-BY-4.0 (http://creativecommons.org/licenses/by/4.0/)",
      "source": "https://sketchfab.com/3d-models/177mm-handle-abs-813420de886f4b6983d9359f60f62a01",
      "title": "177MM HANDLE ABS"
    },
    "generator": "gltfeditor.com",
    "version": "2.0"
  },
  "buffers": [
    {
      "uri": "data:application/octet-stream;base64,",
      "byteLength": 76464
    }
  ],
  "bufferViews": [
    {
      "buffer": 0,
      "byteOffset": 34560,
      "byteLength": 41904,
      "target": 34962,
      "byteStride": 12
    },
    {
      "buffer": 0,
      "byteOffset": 0,
      "byteLength": 34560,
      "target": 34963
    }
  ],
  "accessors": [
    {
      "bufferView": 0,
      "byteOffset": 20952,
      "componentType": 5126,
      "normalized": false,
      "count": 1746,
      "max": [
        1,
        0.999902606010437,
        1
      ],
      "min": [
        -0.9999958872795105,
        -0.999900758266449,
        -0.9997149109840393
      ],
      "type": "VEC3"
    },
    {
      "bufferView": 0,
      "byteOffset": 0,
      "componentType": 5126,
      "normalized": false,
      "count": 1746,
      "max": [
        8.5,
        11.59999942779541,
        2.7755575615628914e-14
      ],
      "min": [
        -185.5,
        -11.58342170715332,
        -61
      ],
      "type": "VEC3"
    },
    {
      "bufferView": 1,
      "byteOffset": 0,
      "componentType": 5125,
      "normalized": false,
      "count": 8640,
      "max": [
        1745
      ],
      "min": [
        0
      ],
      "type": "SCALAR"
    }
  ],
  "scene": 0,
  "scenes": [
    {
      "nodes": [
        2
      ],
      "name": "Sketchfab_Scene"
    }
  ],
  "nodes": [
    {
      "name": "Object_2",
      "matrix": [
        0.0010000000474974513,
        0,
        0,
        0,
        0,
        3.422854361057048e-11,
        -0.0010000000474974513,
        0,
        0,
        0.0010000000474974513,
        3.422854361057048e-11,
        0,
        0,
        0,
        0,
        1
      ],
      "mesh": 0
    },
    {
      "name": "Geode",
      "children": [
        0
      ]
    },
    {
      "name": "Sketchfab_model",
      "children": [
        1
      ],
      "matrix": [
        1,
        0,
        0,
        0,
        0,
        3.422854177870249e-8,
        -0.9999999403953552,
        0,
        0,
        0.9999999403953552,
        3.422854177870249e-8,
        0,
        0,
        0,
        0,
        1
      ]
    }
  ],
  "meshes": [
    {
      "primitives": [
        {
          "attributes": {
            "NORMAL": 0,
            "POSITION": 1
          },
          "material": 0,
          "mode": 4,
          "indices": 2
        }
      ]
    }
  ],
  "materials": [
    {
      "pbrMetallicRoughness": {
        "baseColorFactor": [
          1,
          1,
          1,
          1
        ],
        "metallicFactor": 0,
        "roughnessFactor": 0.6
      },
      "emissiveFactor": [
        0,
        0,
        0
      ],
      "alphaMode": "OPAQUE",
      "doubleSided": true
    }
  ]
}